    <svg
      xmlns="http://www.w3.org/2000/svg"
      xmlnsXlink="http://www.w3.org/1999/xlink"
      viewBox="0 0 296.14 300"
    >
      <defs>
        <linearGradient id="a">
          <stop offset="0" stopColor="#ffe500"></stop>
          <stop offset="0.5" stopColor="#ffe500"></stop>
          <stop offset="1" stopColor="#e15007"></stop>
        </linearGradient>
        <linearGradient id="c">
          <stop offset="0" stopColor="#da030e" stopOpacity="0"></stop>
          <stop offset="0.875" stopColor="#da020e" stopOpacity="0"></stop>
          <stop offset="1" stopColor="#da020e"></stop>
        </linearGradient>
        <linearGradient id="b">
          <stop offset="0" stopColor="#740703"></stop>
          <stop offset="1" stopColor="#da020e" stopOpacity="0"></stop>
        </linearGradient>
        <linearGradient
          id="t"
          x1="476.07"
          x2="476.07"
          y1="403.81"
          y2="458.88"
          gradientUnits="userSpaceOnUse"
          spreadMethod="reflect"
        >
          <stop offset="0" stopColor="#8f0904"></stop>
          <stop offset="0.25" stopColor="#b40509"></stop>
          <stop offset="1" stopColor="#da020e"></stop>
        </linearGradient>
        <linearGradient
          id="s"
          x1="368.06"
          x2="399.48"
          y1="470.94"
          y2="507"
          gradientUnits="userSpaceOnUse"
          xlinkHref="#b"
        ></linearGradient>
        <linearGradient
          id="r"
          x1="368.06"
          x2="399.48"
          y1="470.94"
          y2="507"
          gradientTransform="matrix(-1 0 0 1 957.36 0)"
          gradientUnits="userSpaceOnUse"
          xlinkHref="#b"
        ></linearGradient>
        <radialGradient
          id="m"
          cx="360.51"
          cy="438.59"
          r="18.756"
          gradientTransform="matrix(1.0407 0 0 1.0237 -14.655 -10.386)"
          gradientUnits="userSpaceOnUse"
          xlinkHref="#c"
        ></radialGradient>
        <radialGradient
          id="l"
          cx="360.51"
          cy="438.59"
          r="18.756"
          gradientTransform="matrix(1.0407 0 0 1.0237 223 -10.48)"
          gradientUnits="userSpaceOnUse"
          xlinkHref="#c"
        ></radialGradient>
        <linearGradient
          id="q"
          x1="600.95"
          x2="583.95"
          y1="404.58"
          y2="388.58"
          gradientUnits="userSpaceOnUse"
          xlinkHref="#b"
        ></linearGradient>
        <linearGradient
          id="p"
          x1="600.95"
          x2="582.95"
          y1="404.58"
          y2="385.58"
          gradientTransform="matrix(-1 0 0 1 957.89 0)"
          gradientUnits="userSpaceOnUse"
          xlinkHref="#b"
        ></linearGradient>
        <radialGradient
          id="k"
          cx="446.42"
          cy="291.63"
          r="14.723"
          gradientTransform="matrix(.81453 0 0 .77555 83.801 67.229)"
          gradientUnits="userSpaceOnUse"
          xlinkHref="#a"
        ></radialGradient>
        <radialGradient
          id="j"
          cx="446.42"
          cy="291.63"
          r="14.723"
          gradientTransform="matrix(-.81453 0 0 .77555 874.09 67.229)"
          gradientUnits="userSpaceOnUse"
          xlinkHref="#a"
        ></radialGradient>
        <radialGradient
          id="i"
          cx="478.89"
          cy="288.52"
          r="8.266"
          gradientTransform="matrix(1.096 0 0 1.0476 -45.916 -14.399)"
          gradientUnits="userSpaceOnUse"
          xlinkHref="#a"
        ></radialGradient>
        <radialGradient
          id="h"
          cx="357.14"
          cy="347.1"
          r="8.529"
          gradientTransform="matrix(1.0879 -1.9053 1.676 .95703 -610.04 702.53)"
          gradientUnits="userSpaceOnUse"
          xlinkHref="#a"
        ></radialGradient>
        <linearGradient
          id="o"
          x1="357.73"
          x2="362.28"
          y1="346.83"
          y2="351.83"
          gradientUnits="userSpaceOnUse"
          xlinkHref="#a"
        ></linearGradient>
        <radialGradient
          id="g"
          cx="357.14"
          cy="347.1"
          r="8.529"
          gradientTransform="matrix(-1.0879 -1.9053 -1.676 .95703 1567.9 702.53)"
          gradientUnits="userSpaceOnUse"
          xlinkHref="#a"
        ></radialGradient>
        <linearGradient
          id="n"
          x1="357.73"
          x2="362.28"
          y1="346.83"
          y2="351.83"
          gradientTransform="matrix(-1 0 0 1 957.89 0)"
          gradientUnits="userSpaceOnUse"
          xlinkHref="#a"
        ></linearGradient>
        <clipPath id="v">
          <path
            fill="#ffe500"
            d="M423.57 366.84v115.77l55.354 35.567 55.349-35.567.082-115.59c-1.773-1.563-5.454-4.99-8.338-6.783h-94.442c-2.39 1.678-7.178 5.718-8.005 6.606z"
          ></path>
        </clipPath>
        <filter id="u">
          <feGaussianBlur stdDeviation="3.091"></feGaussianBlur>
        </filter>
        <radialGradient
          id="f"
          cx="452.38"
          cy="563.36"
          r="12.242"
          gradientTransform="matrix(.85679 0 0 .77036 64.786 129.37)"
          gradientUnits="userSpaceOnUse"
          xlinkHref="#a"
        ></radialGradient>
        <radialGradient
          id="e"
          cx="452.38"
          cy="563.36"
          r="12.242"
          gradientTransform="matrix(-.85679 0 0 .77036 894.86 129.37)"
          gradientUnits="userSpaceOnUse"
          xlinkHref="#a"
        ></radialGradient>
        <radialGradient
          id="d"
          cx="479.62"
          cy="566.71"
          r="11.666"
          gradientTransform="matrix(.85027 0 0 .63206 71.816 208.59)"
          gradientUnits="userSpaceOnUse"
          xlinkHref="#a"
        ></radialGradient>
      </defs>
      <path
        d="M493.57 561.89c-1.172 3.447-4.908 11.901-13.949 11.901-10.284 0-13.851-11.127-14.024-11.596l-.304-1.053s8.856.736 13.736.736c4.866 0 13.205-.481 14.554-.736l-.013.749z"
        transform="translate(-330.95 -277.01)"
      ></path>
      <path
        d="M520.56 556.41l2.11.267c-2.517 6.578-7.038 13.95-15.899 13.95-8.643 0-12.905-5.003-14.69-8.347l-1.51-.922s14.888-.481 29.99-4.948M439 556.41l-2.11.267c2.505 6.578 7.046 13.95 15.936 13.95 8.593 0 13.225-5.266 15.134-8.347l1.024-.922s-14.863-.481-29.985-4.948"
        transform="translate(-330.95 -277.01)"
      ></path>
      <path
        fill="url(#d)"
        d="M486.84 562.59c-1.403 2.007-2.345 1.905-4.003 1.905-.86 0-2.093.69-2.081 1.966.037 1.004.856 1.818 2.2 1.818 3.061 0 5.402-4.241 6.023-6.047 0 0 1.794-.074 2.316-.128 0 0-3.209 9.594-11.559 9.594-8.363 0-11.773-9.478-11.773-9.478s7.05.428 11.07.428c4.031 0 6.598-.037 7.808-.058"
        transform="translate(-330.95 -277.01)"
      ></path>
      <path
        fill="url(#f)"
        d="M440.13 558.37c5.434 1.44 9.318 2.657 18.47 3.768 0 0-.292.926-2.283.852-.761-.05-.864-.239-1.127-.284-.588-.107-1.44.49-1.354 1.48.09.7.675 1.568 2.707 1.568s4.398-1.654 5.595-3.2c0 0 1.213.283 2.476.345 0 0-3.912 5.463-11.596 5.463-8.437 0-11.58-7.573-12.888-9.992"
        transform="translate(-330.95 -277.01)"
      ></path>
      <path
        fill="#ffe500"
        stroke="#000"
        strokeMiterlimit="3.863"
        strokeWidth="2.098"
        d="M478.93 513.4c29.141 0 61.425-17.886 84.092-43.671 2.468-2.79 6.602-8.088 16.446-8.088 9.86 0 22.967 8.989 21.432 25.344-1.144 11.913-18.17 38.792-47.324 55.325-29.145 16.6-55.995 20.15-74.647 20.15-18.668 0-45.493-3.55-74.655-20.15-29.149-16.532-46.172-43.411-47.307-55.324-1.534-16.356 11.576-25.344 21.416-25.344 9.869 0 14.019 5.298 16.479 8.087 22.633 25.784 54.934 43.671 84.067 43.671z"
        transform="translate(-330.95 -277.01)"
      ></path>
      <path
        fill="#da020e"
        d="M478.68 517.37c-29.322 0-62.688-17.302-87.263-45.292-2.501-2.843-5.685-6.5-13.262-6.5-4.426 0-9.445 2.37-12.773 6.035-2.505 2.723-5.315 7.524-4.64 14.883.975 10.054 16.907 36.073 45.304 52.231 22.888 13.02 47.328 19.598 72.635 19.598 25.332 0 49.77-6.578 72.66-19.598 28.388-16.158 44.345-42.177 45.283-52.23.703-7.36-2.127-12.16-4.6-14.884-3.344-3.665-8.375-6.035-12.78-6.035-7.61 0-10.79 3.657-13.27 6.5-24.56 27.989-57.967 45.292-87.293 45.292z"
        transform="translate(-330.95 -277.01)"
      ></path>
      <path
        d="M604.82 371.41l.103-6.796c2.094 1.6 6.03 1.625 8.334-.83 1.05-1.12 1.646-2.852 1.56-4.633-.1-2.011-1.013-4.101-2.514-5.574-8.507-8.313-16.064-16.615-16.064-16.615-.782-1.234-2.004-2.127-2.711-2.431-1.04-.498-4.743-2.188-7.565 2.098-2.546 3.883-2.168 9.359-1.678 11.358l7.976 10.872c2.731 3.464 10.428 10.831 12.559 12.551M434.33 300.93c10.041-3.373 19.223-6.162 31.597-7.256l1.876-1.054c-6.907-5.45-13.768-9.169-20.601-9.169-4.29 0-13.02 2.917-14.966 18.318l2.094-.84zM523.55 300.93c-10.046-3.373-19.219-6.162-31.581-7.256l-1.9-1.054c6.935-5.45 13.78-9.169 20.621-9.169 4.295 0 12.987 2.917 14.974 18.318l-2.114-.84z"
        transform="translate(-330.95 -277.01)"
      ></path>
      <path
        d="M467.58 293.17c5.052-9.712 9.671-13.225 12.255-13.225 3.192 0 6.952 5.076 9.906 11.646l.62 1.49-2.595-.202c-1.703-.321-6.553-.383-8.404-.383-1.9 0-5.998 0-8.466.23l-3.316.445z"
        transform="translate(-330.95 -277.01)"
      ></path>
      <path
        fill="#ffe500"
        d="M427.75 512.04l-7.314 13.221c-2.21 3.974-4.484 6.495-8.215 4.356-3.674-2.077-2.822-5.088-.568-9.194l7.335-13.238-5.915-3.282-7.75 13.99c-4.267 7.702 1.102 12.478 5.306 14.794 4.488 2.484 11.02 4.331 15.249-3.312l7.804-14.052-5.932-3.282zm94.055 27.239l-2.464-7.586 7.339-2.37-1.016-3.154-7.347 2.381-2.09-6.483 7.511-2.464-1.012-3.122-13.752 4.471 7.644 23.497 15.159-4.915-1-3.135-8.972 2.88zm15.71-30.408l-8.371 4.825 12.394 21.494 8.338-4.82c8.618-4.97 9.437-12.498 6.043-18.537-4.085-7.166-10.827-7.33-18.405-2.962m12.65 6.541c3.139 5.5 2.501 9.51-2.332 12.279l-2.304 1.341-9.1-15.722 2.477-1.436c5.804-3.336 9.1-.366 11.259 3.538m-66.966 10.071l.448 3.221 6.92-.979 2.99 21.243 6.434-.893-2.982-21.23 6.816-.947-.469-3.266-20.157 2.851zm-5.858.201l-6.479-.353-1.296 24.682 6.484.345 1.291-24.674zm-19.672-3.017l-4.513 16.866-8.445-20.342-5.253-1.411-6.401 23.88 5.722 1.518 4.55-17.006 8.573 20.515 5.138 1.386 6.376-23.888-5.747-1.518zM423.57 366.84v115.77l55.354 35.567 55.349-35.567.082-115.59c-1.773-1.563-5.454-4.99-8.338-6.783h-94.442c-2.39 1.678-7.178 5.718-8.005 6.606z"
        transform="translate(-330.95 -277.01)"
      ></path>
      <path
        fill="none"
        stroke="#b54005"
        strokeMiterlimit="3.863"
        strokeWidth="10"
        d="M423.57 319.81v162.793l55.354 35.567 55.349-35.567.082-162.61"
        clipPath="url(#v)"
        filter="url(#u)"
        transform="translate(-330.95 -277.01)"
      ></path>
      <path
        fill="url(#t)"
        d="M501.05 449.9v-4.303s-1.144-1.769-3.978-1.769c-2.826 0-4.517.852-4.517 1.563 0 1.165 2.53 4.509 8.495 4.509m-22.321-38.088l4.278-7.47 3.353 7.47h5.553c-3.34 3.135-4.706 7.878-4.706 11.041v3.447c0 1.465-.736 3.888-.736 3.888s4.821 3.673 5.562 4.31c.308.244.645.392.423 1.03-.382 1.073-3.657 2.55-3.99 2.83-.74.658-.934 1.052-.74 1.702.234.626.847.741 2.102.297 1.267-.408 3.891-1.786 6.092-2.728 2.193-.954 5.13-.711 5.13-.711V432.7h-8.293v-13.398l-1.465-2.361 3.657-6.516 3.678 6.557-1.448 2.32v6.998h4.224v-6.998l-1.456-2.32 3.67-6.508 3.653 6.508-1.444 2.32v6.998h4.253v-6.998l-1.505-2.32 3.681-6.508 3.67 6.508-1.465 2.32.07 13.378h-8.359v6.187c1.896 1.781 3.686 5.813 3.686 8.186 0 2.432-1.584 3.46-1.584 3.46.53 1.909.428 2.703.202 4.43-.202 1.757-2.395 4.497-2.395 4.497v31.976c0 2.172-5.03 1.958-5.03.102V460.16c-2.847-3.114-10.598-5.561-10.598-5.561-2.842 2.842-4.59 7.779-4.59 7.779 1.234.864 3.155 0 3.879-.84.711-.839 2.172-1.057 3.015-.526.827.526 1.033.728.749 1.962-.325 1.3-.844 3.377-.844 4.83 0 1.489 1.675 1.155 2.925 1.267 2.526.222 2.942 3.044 2.732 4.62-.206 1.583-.946 4.944-.946 7.034 0 2.069.11 4.158.316 5.343.218 1.144.63 2.407.515 3.884-.128 1.986-1.35 2.303-2.617 1.028-1.25-1.255-18.762-19.923-18.762-19.923-1.164 3.797 3.682 10.272 5.245 12.27 1.576 2 1.473 3.469.095 4.839-1.35 1.353-3.978 2.077-4.492 3.352-.535 1.234 1.254 5.035 4.936 9.75 3.67 4.706-4.212 7.865-8.914 8.807-4.735.93-4.735-2.32-4.406-4.101.313-1.765.313-2.839.198-4.39-.103-1.58-1.551-3.768-3.563-6.388-1.987-2.633-1.987-5.027-1.16-11.127.835-6.084.638-9.967.638-9.967s-2.098.086-5.142 0c-3.028-.116-5.541-1.872-5.755-9.22-.21-7.326-.383-24.821-.88-26.656-.486-1.814-2.448-2.147-3.275-2.39-.86-.214-.901-1.452-.07-1.897 2.188-1.065 4.813-3.751 3.842-5.421-.983-1.675-4.838-1.33-7.417-.066-2.587 1.25-5.315 3.998-6.018 4.747-.679.74-1.267.74-1.193-.058.086-.855-.477-4.858-.81-6.244-.37-1.399-1.621-4.044-2.045-4.743-.415-.704 0-.975.708-.704.678.28 2.233.926 3.694 1.313 1.472.444 2.875-.28 3.546-1.654.699-1.42 2.065-4.41 2.764-5.747.687-1.32 1.798-1.024 2.711-.823.905.214 1.744.774 2.58 1.107.83.346 1.525.28 1.822-.144.284-.403.63-.555 1.131-1.6.49-1.045 1.098-.547 1.176-.132 2.502 15.04 9.018 15.731 9.018 15.731-.98 2.505-3.275 6.5-3.818 7.508-.588.942-.806 2.283-.95 3.323-.111 1.037.362 10.971 1.057 14.612.708 3.645 2.933 2.226 3.657 1.111.67-1.11 2.855-5.734 2.855-5.734s.539-1.26.539-2.304c0-1.053-1.81-3.336-2.226-4.048-.432-.724-1.958-2.11-1.958-5.61 0-3.49 3.143-5.908 4.274-6.825 1.12-.918 1.12-2.189.967-2.954-.49-2.699-3.357-8.375-4.735-10.552-1.41-2.168-4.134-6.286-4.134-6.286h5.66l3.645-7.569 3.966 7.602 4.142.037zm-.917 22.93c1.847-3.052 2.62-6.224 2.62-6.224h-5.34s.856 3.246 2.72 6.224m-5.562-15.389c.214 1.563 1.378 2.16 2.262 1.703.88-.485.728-1.752.074-2.764-.625-.992-1.925-2.098-2.324-1.934-.407.169-.152 2.074-.012 2.995m10.584-2.995c-.383-.164-1.753.942-2.403 1.934-.625 1.012-.785 2.279.103 2.764.868.457 1.987-.152 2.267-1.703.152-.921.452-2.826.033-2.995"
        transform="translate(-330.95 -277.01)"
      ></path>
      <path
        fill="#da020e"
        d="M427.919 395.7v6.969h102.12V395.7h-7.531v1.125h-87.062V395.7h-7.531zM427.92 364.38h102.11v27.767H427.92V364.38z"
        transform="translate(-330.95 -277.01)"
      ></path>
      <path
        fill="#ffe500"
        d="M445.47 384.08l7.82 1.921 4.22-11.76v-2.98zm64.449 6.933v-3.622h-7.38v-3.044h6.03V370.92h-5.557l-1.9-3.695-1.856 3.695h-5.574v13.427h6.056v3.044H485.22v-3.044h6.038V370.92h-5.565l-1.88-3.695-1.9 3.695h-5.55v13.427h6.068v3.044h-14.817v-3.044h6.05V370.92h-5.573l-1.864-3.695-1.913 3.695h-5.553v13.427h6.072v3.044l-11.724.037-11.662-2.724 2.336 6.309h66.135z"
        transform="translate(-330.95 -277.01)"
      ></path>
      <path
        fill="url(#k)"
        d="M434.91 299.84c9.856-3.3 17.306-5.87 29.446-6.948-5.595-3.883-10.56-7.17-16.27-7.17-3.003 0-5.57 1.148-6.162 3.246-.552 1.908.954 2.74 1.489 2.612.56-.144.958-.309.823-.827-.144-.547.28-1.938 2.188-1.938 1.942 0 2.674 1.798 2.674 3.032s-1.958 3.295-5.558 3.295c-3.53 0-5.34-2.353-5.203-4.529-1.703 2.493-2.695 5.015-3.427 9.227"
        transform="translate(-330.95 -277.01)"
      ></path>
      <path
        d="M366.22 358.85l8.005-10.872c.46-2 .827-7.47-1.732-11.354-2.797-4.29-6.483-2.596-7.565-2.098-.682.304-1.925 1.193-2.69 2.431 0 0-7.697 8.474-16.167 16.813-1.197 1.189-2.513 3.361-2.624 5.373-.103 1.785.617 3.579 1.653 4.697 2.316 2.469 6.364 2.37 8.433.766l.144 6.795c2.131-1.715 9.815-9.087 12.543-12.55"
        transform="translate(-330.95 -277.01)"
      ></path>
      <path
        fill="#ffe500"
        stroke="#000"
        strokeMiterlimit="3.863"
        strokeWidth="2.098"
        d="M478.93 343.03c45.579 0 71.512 42.782 77.172 50.294 10.054 13.419 22.362 24.312 36.624 20.712 20.951-5.36 19.861-36.394 19.861-36.394-5.056-3.64-13.67-8.223-29.376-30.486-15.381-21.823-50.187-54.152-104.28-54.152-54.107 0-88.905 32.329-104.25 54.152-15.722 22.263-24.365 26.846-29.372 30.486 0 0-1.131 31.034 19.836 36.394 14.254 3.6 26.554-7.294 36.624-20.712 5.64-7.512 31.589-50.294 77.16-50.294z"
        transform="translate(-330.95 -277.01)"
      ></path>
      <path
        fill="#da020e"
        d="M478.93 338.97c43.942 0 70.076 37.274 79.528 50.724 12.508 16.695 23.096 22.997 33.269 20.41 14.702-3.743 16.529-23.979 16.726-30.104v-.243l-.165-.127c-5.183-3.591-13.855-9.544-28.384-30.141-8.667-12.3-41.573-52.462-100.97-52.462-59.38 0-92.315 40.162-100.98 52.462-14.41 20.466-23.473 26.706-28.327 30.038l-.205.168.024.214c.198 6.138 2.028 26.48 16.693 30.194 10.185 2.588 20.795-3.714 33.27-20.41 9.442-13.45 35.601-50.724 79.522-50.724"
        transform="translate(-330.95 -277.01)"
      ></path>
      <path
        fill="#ffe500"
        d="M455.05 307.83c-8.063 1.707-13.374 7.651-11.633 15.71 1.012 4.352 4.895 12.362 17.179 9.75 3.41-.65 5.253-2.008 7.038-3.715l-2.237-2.571c-.844.938-2.102 2.303-4.928 2.892-5.945 1.254-9.478-3.555-10.358-7.705-1.309-6.15 2.274-10.387 6.322-11.263 2.892-.638 4.645.148 5.755.58h.037l.753-3.151c-1.95-.782-4.29-1.3-7.927-.527m67.431 35.453c4.611 2.777 9.642 2.304 11.995-1.592 1.711-2.723 1.728-4.986-.33-9.038-.53-1.147-1.225-1.97-1.69-3.015-.909-1.695-1.748-3.08-.966-4.393.863-1.424 2.863-1.539 4.673-.432 1.896 1.148 2.682 3.044 3.08 4.34l2.975-1.284c-.913-2.443-2.267-4.636-5.36-6.466-5.286-3.184-9.585-2.345-11.374.637-1.814 3-1.3 5.496.066 8.055 0 0 .847 1.452 1.336 2.443 1.198 2 2.592 4.521 1.613 6.097-1.185 1.987-3.225 2.419-5.212 1.184-2.546-1.604-3.143-3.471-3.673-5.294l-3.27 1.399c.72 2.51 2.41 5.109 6.137 7.36m-35.205-36.75l-.185 10.07-9.684-.14.144-10.108-6.491-.119-.432 24.711 6.503.14.206-11.33 9.7.178-.185 11.308 6.495.098.424-24.71-6.495-.1zM580.275 385c.045.062 3.81 1.921 7.993-1.835 3.496-3.142 2.324-7.45-1.329-11.494l-6.734-7.482-18.36 16.545 4.34 4.813 7.31-6.558 2.111 2.382-4.628 10.44 5.541 4.427 3.756-11.24zm3.278-12.172c1.72 1.909 1.749 4.176-.25 5.936-1.946 1.794-4.43 1.382-6.32-.69l-1.098-1.23 6.216-5.616 1.452 1.6zm-28.652-6.313l6.15-5.105 4.933 5.87 2.55-2.126-4.961-5.895 5.204-4.381 5.08 6.05 2.522-2.101-9.28-11.062-18.92 15.887 10.219 12.197 2.55-2.119-6.047-7.215zm-7.092-37.132l-2.204 2.42 5.183 4.685-14.365 15.936 4.846 4.356 14.344-15.94 5.117 4.607 2.197-2.418-15.118-13.645zm-42.3 1.567l2.616-7.536 7.277 2.509 1.082-3.135-7.29-2.505 2.218-6.454 7.499 2.57 1.053-3.117-13.662-4.702-8.03 23.403 15.056 5.154 1.07-3.118-8.89-3.069zm-78.239-12.107l9.28 14.793-20.662-7.713-4.6 2.888 13.103 20.992 4.99-3.143-9.343-14.945 20.877 7.75 4.51-2.826-13.128-20.98-5.027 3.184zm-28.903 22.353l-4.224 4.533 11.843 23.551 2.892-3.093-3.217-6.265 5.718-6.15 6.483 2.748 4.763-5.101-24.258-10.222zm9.988 11.214l-4.29 4.607-4.41-8.474 8.7 3.867zm-23.946 3.73l-4.599 5.476 8.594 17.77-18.43-6.034-3.965 4.698 18.935 15.899 2.875-3.415-13.382-11.263 17.936 5.842 1.889-2.238-8.553-17.138 13.44 11.267 4.195-4.965-18.935-15.9z"
        transform="translate(-330.95 -277.01)"
      ></path>
      <path
        fill="url(#h)"
        d="M355.49 368.73l-.02-5.45c9.3-8.54 13.685-17.122 13.685-17.122s-3.418-1.287-4.948-3.233c-.757-1.082-1.05-2.559-.922-3.55.296-1.86 1.744-2.801 2.238-3.015 1.07-.461 3.057-1.506 5.27 1.538 2.357 3.295 1.736 9.548 1.41 10.988 0 0-4.335 7.549-16.713 19.844"
        transform="translate(-330.95 -277.01)"
      ></path>
      <path
        fill="url(#o)"
        d="M365.78 347.16c-1.255 2.188-4.418 7.47-12.419 14.97-1.329 1.246-4.644 2.304-6.524.193-.704-.818-1.169-1.966-1.099-3.299.09-1.542 1.016-3.336 1.946-4.126 1.613-1.361 8.487-8.301 13.374-13.76.136.996.991 2.662.991 2.662.675.93 1.498 2.266 3.732 3.36"
        transform="translate(-330.95 -277.01)"
      ></path>
      <path
        fill="url(#s)"
        d="M478.68 517.37c-29.322 0-62.688-17.302-87.263-45.292-2.501-2.843-5.685-6.5-13.262-6.5-4.426 0-9.445 2.37-12.773 6.035-2.505 2.723-5.315 7.524-4.64 14.883.975 10.054 16.907 36.073 45.304 52.231 22.888 13.02 47.328 19.598 72.635 19.598"
        transform="translate(-330.95 -277.01)"
      ></path>
      <path
        fill="url(#r)"
        d="M478.68 517.37c29.322 0 62.688-17.302 87.263-45.292 2.501-2.843 5.685-6.5 13.262-6.5 4.426 0 9.445 2.37 12.773 6.035 2.505 2.723 5.315 7.524 4.64 14.883-.975 10.054-16.907 36.073-45.304 52.231-22.888 13.02-47.328 19.598-72.635 19.598"
        transform="translate(-330.95 -277.01)"
      ></path>
      <path
        fill="url(#q)"
        d="M558.45 389.69c12.508 16.695 23.096 22.997 33.269 20.41 14.702-3.743 16.529-23.979 16.726-30.104v-.243l-.165-.127c-5.183-3.591-13.855-9.544-28.384-30.141"
        transform="translate(-330.95 -277.01)"
      ></path>
      <path
        fill="url(#p)"
        d="M399.44 389.69c-12.508 16.695-23.096 22.997-33.269 20.41-14.702-3.743-16.529-23.979-16.726-30.104v-.243l.165-.127c5.183-3.591 13.855-9.544 28.384-30.141"
        transform="translate(-330.95 -277.01)"
      ></path>
      <path
        fill="url(#j)"
        d="M522.99 299.84c-9.856-3.3-17.306-5.87-29.446-6.948 5.595-3.883 10.56-7.17 16.27-7.17 3.003 0 5.57 1.148 6.162 3.246.552 1.908-.954 2.74-1.489 2.612-.56-.144-.958-.309-.823-.827.144-.547-.28-1.938-2.188-1.938-1.942 0-2.674 1.798-2.674 3.032s1.958 3.295 5.558 3.295c3.53 0 5.34-2.353 5.203-4.529 1.703 2.493 2.695 5.015 3.427 9.227"
        transform="translate(-330.95 -277.01)"
      ></path>
      <path
        fill="url(#i)"
        d="M479.39 286.9c-.309 1.884-2.476 3.69-4.669 3.69-2.197 0-2.855-.354-2.855-.354-.333.519-.625.918-.97 1.477 1.99-.078 6.61-.206 8.461-.206 1.847 0 6.969.268 8.071.346-1.781-4.176-5.216-9.955-7.59-9.955-.082 0-.185-.008-.312-.008-.556 0-2.48 1.668-3.51 3.132-1.354 1.924 3.374 1.878 3.374 1.878z"
        transform="translate(-330.95 -277.01)"
      ></path>
      <path
        fill="url(#g)"
        d="M602.41 368.73l.02-5.45c-9.3-8.54-13.685-17.122-13.685-17.122s3.418-1.287 4.948-3.233c.757-1.082 1.05-2.559.922-3.55-.296-1.86-1.744-2.801-2.238-3.015-1.07-.461-3.057-1.506-5.27 1.538-2.357 3.295-1.736 9.548-1.41 10.988 0 0 4.335 7.549 16.713 19.844"
        transform="translate(-330.95 -277.01)"
      ></path>
      <path
        fill="url(#n)"
        d="M592.11 347.16c1.255 2.188 4.418 7.47 12.419 14.97 1.329 1.246 4.644 2.304 6.524.193.704-.818 1.169-1.966 1.099-3.299-.09-1.542-1.016-3.336-1.946-4.126-1.613-1.361-8.487-8.301-13.374-13.76-.136.996-.991 2.662-.991 2.662-.675.93-1.498 2.266-3.732 3.36"
        transform="translate(-330.95 -277.01)"
      ></path>
      <path
        fill="none"
        stroke="#000"
        strokeMiterlimit="3.863"
        strokeWidth="2.098"
        d="M423.57 366.84v115.77l55.354 35.567 55.349-35.567.082-115.59c-1.773-1.563-5.454-4.99-8.338-6.783h-94.442c-2.39 1.678-7.178 5.718-8.005 6.606z"
        transform="translate(-330.95 -277.01)"
      ></path>
      <path
        fill="url(#e)"
        d="M519.51 558.37c-5.434 1.44-9.318 2.657-18.47 3.768 0 0 .292.926 2.283.852.761-.05.864-.239 1.127-.284.588-.107 1.44.49 1.354 1.48-.09.7-.675 1.568-2.707 1.568s-4.398-1.654-5.595-3.2c0 0-1.213.283-2.476.345 0 0 3.912 5.463 11.596 5.463 8.437 0 11.58-7.573 12.888-9.992"
        transform="translate(-330.95 -277.01)"
      ></path>
      <path
        fill="#ffe500"
        stroke="#000"
        strokeMiterlimit="3.863"
        strokeWidth="2.098"
        d="M335.19 439.54c0-13.966 11.333-25.324 25.316-25.324 13.986 0 25.311 11.358 25.311 25.324 0 13.991-11.325 25.324-25.311 25.324-13.982 0-25.316-11.333-25.316-25.324z"
        transform="translate(-330.95 -277.01)"
      ></path>
      <path
        fill="url(#m)"
        d="M340.99 438.59c0-10.589 8.739-19.2 19.52-19.2 10.784 0 19.517 8.611 19.517 19.2 0 10.607-8.732 19.2-19.517 19.2-10.781 0-19.52-8.593-19.52-19.2z"
        transform="translate(-330.95 -277.01)"
      ></path>
      <path
        fill="#da020e"
        d="M365.89 456.94c-1.11.354-1.592-.424-2.098-.983-1.97-2.267-2.476-8.302-2.476-9.1 0-.802.296-1.682.86-1.703 4.75-.09 8.144-1.468 11.258-4.056 3.11-2.542 4.46-5.458 4.735-5.977.272-.576.918-.473 1.037.325.131.667.382 1.864.382 3.16 0 8.696-5.862 15.8-13.699 18.334m-5.014.786c-.136 0-.288.017-.416.017-3.5 0-7.355-1.337-9.638-2.637-2.365-1.288-3.254-7.36-3.254-10.428 0-9.992 4.097-15.94 4.764-17.11.65-1.184 2.114-1.307 3.188-1.02 1.11.321 1.505.515 2.785.893.666.218 2.02.494 3.036.675 1.016.243 2.11.456 1.452 2.353-.65 1.9-2.863 6.467-3.086 11.88-.213 4.9.437 9.766 1.543 12.756.728 1.933.728 2.657-.374 2.62m-14.464-22.81c-.934-.493-2.057-2.904-2.436-3.607-.255-.506-.255-1.954.111-2.571 1.564-2.736 3.781-5.27 6.636-6.59.35-.153.84-.182.84.658 0 .448.242 1.147.25 1.592 0 .448.19 1.365-.378 2.09-.597.727-3.152 5.257-3.806 7.795-.107.567-.28 1.164-1.217.633m-.527 16.035c-2.649-2.616-4.537-7.355-4.537-12.345 0-1.937.288-3.793.802-5.553 0 0 .473-.79.884-.12.317.494.753.992 1.107 1.65.395.658 2.444 2.217 2.27 3.489-.715 4.669-.073 10.872.149 11.917.197 1.032-.087 1.472-.675.962m8.363-30.433a19.756 19.756 0 016.212-1.016c3.279 0 6.463.596 9.12 2.291.683.445.876.963.876 1.732 0 2.505-3.916 3.345-6.508 3.345-2.608 0-5.816-1.033-8.087-1.753-2.263-.707-2.756-2.015-2.756-2.612 0-.572.44-1.756 1.143-1.987m17.681 2.785l1.275 1.033c1.827 1.666 3.476 3.566 4.435 5.845 1.197 2.871-2.518 7.22-3.608 8.223-4.92 4.62-8 4.534-9.745 4.785-1.744.255-2.876-.84-2.83-2.152.11-3.842 2.846-10.465 3.632-11.712.502-.802 1.374-1.3 1.374-1.3 1.827-.506 3.6-1.267 4.517-2.312.897-1.061.95-2.41.95-2.41m-11.28-5.048c-11.76 0-21.284 9.528-21.284 21.28 0 11.761 9.523 21.284 21.284 21.284 11.753 0 21.296-9.523 21.296-21.284 0-11.753-9.543-21.28-21.296-21.28"
        transform="translate(-330.95 -277.01)"
      ></path>
      <path
        fill="#ffe500"
        stroke="#000"
        strokeMiterlimit="3.863"
        strokeWidth="2.098"
        d="M572.56 439.49c0-13.966 11.333-25.283 25.316-25.283 13.991 0 25.316 11.317 25.316 25.283 0 13.991-11.325 25.328-25.316 25.328-13.982 0-25.316-11.337-25.316-25.328z"
        transform="translate(-330.95 -277.01)"
      ></path>
      <path
        fill="#da020e"
        d="M612.7 450.86c-.555.547-.868.07-.634-.954.194-1.016.84-7.24.12-11.91-.177-1.266 1.884-2.821 2.262-3.488.379-.654.81-1.164 1.115-1.641.424-.691.872.082.872.082a19.03 19.03 0 01.806 5.574c0 5.006-1.912 9.729-4.541 12.337m-1.715-16.648c-.659-2.53-3.23-7.08-3.81-7.803-.584-.7-.399-1.63-.39-2.078 0-.444.255-1.156.255-1.617 0-.802.485-.785.83-.633 2.872 1.32 5.077 3.817 6.656 6.578.35.63.358 2.069.1 2.558-.371.708-1.486 3.119-2.44 3.629-.955.522-1.095-.087-1.202-.634m-3.196 20.82c-2.287 1.279-6.142 2.628-9.659 2.628h-.407c-1.082.029-1.107-.724-.366-2.65 1.074-2.965 1.744-7.852 1.522-12.74-.222-5.438-2.406-9.955-3.085-11.867-.658-1.897.44-2.127 1.468-2.341 1.02-.202 2.37-.498 3.04-.712 1.26-.382 1.666-.576 2.777-.893 1.082-.28 2.538-.14 3.2 1.017.65 1.184 4.756 7.17 4.756 17.138 0 3.052-.897 9.115-3.246 10.42m-15.068 1.826c-7.857-2.546-13.707-9.647-13.707-18.335 0-1.28.251-2.464.354-3.155.152-.798.753-.93 1.053-.342.276.535 1.641 3.448 4.735 5.998 3.134 2.567 6.495 3.97 11.276 4.069.58.028.851.88.851 1.699 0 .81-.49 6.832-2.451 9.083-.523.575-1.025 1.365-2.11.983m-11.74-26.747c.933-2.28 2.591-4.213 4.417-5.842 0 0 .906-.765 1.255-1.032 0 0 .074 1.361.983 2.382.905 1.028 2.662 1.834 4.488 2.316 0 0 .86.522 1.374 1.324.81 1.21 3.526 7.824 3.645 11.695.033 1.317-1.086 2.41-2.834 2.16-1.753-.235-4.826-.181-9.741-4.776-1.086-1.008-4.801-5.348-3.588-8.227m8.03-8.392c2.695-1.703 5.838-2.3 9.12-2.3 2.172 0 4.237.37 6.216 1.02.728.227 1.156 1.399 1.156 1.987 0 .58-.481 1.905-2.76 2.617-2.27.699-5.467 1.744-8.071 1.744-2.62 0-6.525-.852-6.525-3.345 0-.752.19-1.3.864-1.723m8.919-3.521c-11.75 0-21.276 9.53-21.276 21.255 0 11.79 9.527 21.284 21.276 21.284 11.769 0 21.296-9.495 21.296-21.284 0-11.724-9.528-21.255-21.296-21.255"
        transform="translate(-330.95 -277.01)"
      ></path>
      <path
        fill="url(#l)"
        d="M578.65 438.5c0-10.589 8.739-19.2 19.52-19.2 10.784 0 19.517 8.611 19.517 19.2 0 10.607-8.732 19.2-19.517 19.2-10.781 0-19.52-8.593-19.52-19.2z"
        transform="translate(-330.95 -277.01)"
      ></path>
    </svg>